<svg xmlns="http://www.w3.org/2000/svg" class="w-8 h-8" viewBox="0 0 18 14" fill="currentColor" >
<path d="M7.81248 10.2774C7.81248 11.0797 7.48343 11.7817 6.82532 12.3834C6.17988 12.9851 5.4142 13.2859 4.5283 13.2859C3.13616 13.2859 2.06674 12.8284 1.32005 11.9133C0.573358 10.9982 0.200012 9.73209 0.200012 8.115C0.200012 6.61072 0.83913 5.09391 2.11737 3.56457C3.40826 2.03523 4.95859 0.875681 6.76837 0.0859375L7.60366 1.42098C6.17355 2.11044 5.05351 2.91272 4.24354 3.82782C3.43357 4.74292 2.9653 5.85232 2.83875 7.15602H3.90183C4.68649 7.15602 5.32561 7.24377 5.81919 7.41927C6.31276 7.59477 6.71142 7.83921 7.01516 8.1526C7.30624 8.45346 7.50874 8.78565 7.62264 9.14919C7.7492 9.51272 7.81248 9.88879 7.81248 10.2774ZM17.1714 10.2774C17.1714 11.0797 16.8424 11.7817 16.1843 12.3834C15.5388 12.9851 14.7732 13.2859 13.8873 13.2859C12.4951 13.2859 11.4257 12.8284 10.679 11.9133C9.93232 10.9982 9.55898 9.73209 9.55898 8.115C9.55898 6.61072 10.1981 5.09391 11.4763 3.56457C12.7672 2.03523 14.3176 0.875681 16.1273 0.0859375L16.9626 1.42098C15.5325 2.11044 14.4125 2.91272 13.6025 3.82782C12.7925 4.74292 12.3243 5.85232 12.1977 7.15602H13.2608C14.0455 7.15602 14.6846 7.24377 15.1782 7.41927C15.6717 7.59477 16.0704 7.83921 16.3741 8.1526C16.6652 8.45346 16.8677 8.78565 16.9816 9.14919C17.1082 9.51272 17.1714 9.88879 17.1714 10.2774Z"/>
</svg>
